<svg width="35" height="35" viewBox="0 0 35 35" fill="none" xmlns="http://www.w3.org/2000/svg">
<path fill-rule="evenodd" clip-rule="evenodd" d="M14.2593 0V3.84146H28.9506L32.8395 0H14.2593ZM12.0988 20.4878V16.6463H3.45679V3.84146H11.6667V0.426829H0V20.4878H12.0988ZM30.679 20.4878V5.72676L35 1.45847V20.4878H30.679ZM28.5185 8.10975V20.4878H14.2593V16.6463H24.1975V12.378L28.5185 8.10975ZM9.93827 7.25609L12.963 4.26829L15.9877 7.25609L12.963 10.2439L9.93827 7.25609ZM35 22.6218H22.4691V31.1584H3.45679V22.6218H0V34.9999H35V22.6218ZM26.7901 26.8901H30.679V30.7316H26.7901V26.8901ZM12.9627 10.6709L15.5553 13.2319L12.9627 15.7928L10.3701 13.2319L12.9627 10.6709Z" fill="#D51001"/>
</svg>
